

<svg width="1024" height="423" viewBox="0 0 1024 423" fill="none" xmlns="http://www.w3.org/2000/svg">
  <ycontrol>
    <property name="Anlagenamen" datatype="String" defaultvalue="Ygnis Testaufbau Pult, Wolhuserstrasse 31 Ruswil">
      <target type="Content" element="name" />
    </property>
    <property name="Projektnummer" datatype="String" defaultvalue="9999999">
      <target type="Content" element="projektnummer" />
    </property>
    <property name="Schemanummer" datatype="String" defaultvalue="9999999">
      <target type="Content" element="schemanummer" />
    </property>
  </ycontrol>
  <g id="Home">
    <rect width="1024" height="423" fill="black"/>
    <g id="Welcome">
      <rect x="135" y="250" width="723" height="116" rx="12" fill="#313131"/>
      <g id="Frame15303">
        <!-- Zentrierter Text: Anlagenamen -->
        <text fill="white" xml:space="preserve"  font-size="24" font-weight="500" letter-spacing="0em" text-anchor="middle">
          <tspan x="50%" y="286.727" class="name">Ygnis Testaufbau Pult, Wolhuserstrasse 31 Ruswil</tspan>
        </text>
        <!-- Zentrierter Text: Projektnummer -->
        <text fill="white" xml:space="preserve"  font-size="20" font-weight="500" letter-spacing="0em" text-anchor="middle">
          <tspan x="50%" y="318.273">{{schemanummerLabel}} <tspan class="schemanummer">9999999</tspan></tspan>
        </text>
        <!-- Zentrierter Text: Schemanummer -->
        <text fill="white" xml:space="preserve"  font-size="20" font-weight="500" letter-spacing="0em" text-anchor="middle">
          <tspan x="50%" y="348.273">{{projektnummerLabel}} <tspan class="projektnummer">9999999</tspan></tspan>
        </text>
      </g>
      <g id="ygnis_CMYK_transparent-background_white1" clip-path="url(#clip0_538_167)">
      <g id="g10">
      <path id="path14" d="M661.82 91.392V189.501H638.985L595.698 137.221V189.501H568.515V91.392H591.355L634.643 143.668V91.392H661.82Z" fill="white"/>
<path id="path16" d="M752.445 188.518C744.974 186.554 738.906 183.944 734.234 180.669L743.339 160.204C747.733 163.107 752.817 165.439 758.61 167.213C764.398 168.991 770.098 169.879 775.705 169.879C786.347 169.879 791.675 167.213 791.675 161.891C791.675 159.088 790.156 157.008 787.117 155.652C784.088 154.297 779.203 152.873 772.48 151.379C765.102 149.791 758.937 148.082 753.99 146.262C749.039 144.438 744.788 141.52 741.236 137.501C737.688 133.486 735.917 128.065 735.917 121.245C735.917 115.265 737.551 109.869 740.819 105.056C744.083 100.245 748.964 96.4353 755.456 93.6334C761.949 90.8315 769.912 89.431 779.345 89.431C785.789 89.431 792.14 90.1545 798.397 91.6015C804.655 93.0486 810.165 95.1752 814.934 97.9775L806.382 118.583C797.042 113.536 787.985 111.013 779.203 111.013C773.69 111.013 769.677 111.833 767.157 113.465C764.637 115.104 763.371 117.23 763.371 119.845C763.371 122.459 764.867 124.424 767.857 125.729C770.842 127.039 775.651 128.394 782.286 129.794C789.757 131.385 795.944 133.086 800.851 134.908C805.749 136.729 810.001 139.63 813.601 143.6C817.193 147.57 818.995 152.966 818.995 159.789C818.995 165.673 817.357 170.998 814.088 175.763C810.82 180.531 805.913 184.333 799.381 187.185C792.839 190.032 784.899 191.46 775.563 191.46C767.627 191.46 759.916 190.479 752.445 188.518Z" fill="white"/>
<path id="path18" d="M687.077 91.3955V189.501H714.819V91.3955H687.077Z" fill="white"/>
<path id="path20" d="M368.398 189.556H397.944L454.628 91.3348H425.084L402.271 130.864L379.456 91.3348H349.913L387.498 156.461L368.398 189.556Z" fill="white"/>
<path id="path22" d="M249.574 120.926C255.32 111.337 262.793 101.333 270.549 91.9303C267.369 74.819 256.202 60.1446 238.247 49.3141C235.638 54.4093 212.998 94.4278 206.706 122.183C200.324 149.943 212.081 173.885 238.247 189.669C238.259 189.648 238.273 189.621 238.281 189.6C229.969 168.286 235.709 144.488 249.574 120.926Z" fill="#40BEA1"/>
<path id="path24" d="M311.355 49.0075C308.776 50.9029 288.869 69.7257 270.551 91.9303C270.551 91.9409 270.552 91.9529 270.552 91.9631C270.869 93.6626 271.108 95.5801 271.286 97.5898C271.296 97.7316 271.318 97.8668 271.329 98.005C271.924 105.155 271.623 113.687 270.09 120.362C263.812 148.055 248.901 170.458 238.323 189.525C238.312 189.551 238.297 189.577 238.285 189.6C241.347 197.448 246.253 204.968 253.445 211.998C257.714 208.135 295.91 172.319 315.229 140.083C334.198 107.847 338.082 75.1442 311.355 49.0075Z" fill="#F8A10E"/>
<path id="path26" d="M547.028 131.897H505.791V153.647H522.58V165.252C517.909 167.404 512.915 168.477 507.59 168.477C502.172 168.477 497.362 167.286 493.159 164.903C488.957 162.518 485.685 159.206 483.353 154.953C481.019 150.702 479.852 145.864 479.852 140.447C479.852 131.944 482.415 125.147 487.557 120.054C492.692 114.962 499.465 112.413 507.869 112.413C516.702 112.413 524.328 115.777 530.775 122.43L547.129 105.031C542.669 100.398 537.372 96.6984 531.127 94.0574C523.838 90.9715 515.621 89.431 506.471 89.431C496.01 89.431 486.62 91.6015 478.312 95.9457C469.994 100.289 463.507 106.345 458.834 114.097C454.163 121.854 451.83 130.635 451.83 140.447C451.83 150.256 454.163 159.041 458.834 166.795C463.507 174.551 469.951 180.595 478.169 184.948C486.384 189.292 495.636 191.46 505.908 191.46C513.195 191.46 520.479 190.387 527.762 188.236C535.048 186.09 541.492 183.009 547.097 178.991V138.344H547.028V131.897Z" fill="white"/>
        <!-- Weitere Elemente, z.B. Logos oder Formen, können hier folgen -->
      </g>
    </g>
    </g>
  </g>
</svg>
