<?xml version="1.0" encoding="UTF-8" standalone="no"?>
<svg
   viewBox="0 0 184.85333 49.053333"
   height="49.053333"
   width="184.85333"
   xml:space="preserve"
   id="svg2"
   version="1.1"
   sodipodi:docname="ygnis_CMYK_transparent-background_white.svg"
   inkscape:version="1.3.2 (091e20e, 2023-11-25, custom)"
   xmlns:inkscape="http://www.inkscape.org/namespaces/inkscape"
   xmlns:sodipodi="http://sodipodi.sourceforge.net/DTD/sodipodi-0.dtd"
   xmlns="http://www.w3.org/2000/svg"
   xmlns:svg="http://www.w3.org/2000/svg"
   xmlns:rdf="http://www.w3.org/1999/02/22-rdf-syntax-ns#"
   xmlns:cc="http://creativecommons.org/ns#"
   xmlns:dc="http://purl.org/dc/elements/1.1/"><sodipodi:namedview
     id="namedview1"
     pagecolor="#ffffff"
     bordercolor="#111111"
     borderopacity="1"
     inkscape:showpageshadow="0"
     inkscape:pageopacity="0"
     inkscape:pagecheckerboard="1"
     inkscape:deskcolor="#d1d1d1"
     inkscape:zoom="5.696408"
     inkscape:cx="92.426666"
     inkscape:cy="24.489117"
     inkscape:window-width="1920"
     inkscape:window-height="1009"
     inkscape:window-x="1912"
     inkscape:window-y="-8"
     inkscape:window-maximized="1"
     inkscape:current-layer="g12" /><metadata
     id="metadata8"><rdf:RDF><cc:Work
         rdf:about=""><dc:format>image/svg+xml</dc:format><dc:type
           rdf:resource="http://purl.org/dc/dcmitype/StillImage" /></cc:Work></rdf:RDF></metadata><defs
     id="defs6" /><g
     transform="matrix(1.3333333,0,0,-1.3333333,0,49.053333)"
     id="g10"><g
       transform="scale(0.1)"
       id="g12"><path
         id="path14"
         style="fill:#ffffff;fill-opacity:1;fill-rule:nonzero;stroke:none"
         d="M 1031.49,272.219 V 50.7813 H 979.93 L 882.188,168.781 V 50.7813 H 820.809 V 272.219 h 51.574 L 970.125,154.23 v 117.989 h 61.365" /><path
         id="path16"
         style="fill:#ffffff;fill-opacity:1;fill-rule:nonzero;stroke:none"
         d="m 1236.12,53 c -16.87,4.4336 -30.57,10.3242 -41.12,17.7148 l 20.56,46.1912 c 9.92,-6.551 21.4,-11.816 34.48,-15.82 13.07,-4.0118 25.94,-6.0157 38.6,-6.0157 24.03,0 36.06,6.0157 36.06,18.0277 0,6.328 -3.43,11.023 -10.29,14.082 -6.84,3.058 -17.87,6.273 -33.05,9.644 -16.66,3.586 -30.58,7.442 -41.75,11.551 -11.18,4.117 -20.78,10.703 -28.8,19.773 -8.01,9.063 -12.01,21.297 -12.01,36.692 0,13.496 3.69,25.676 11.07,36.539 7.37,10.859 18.39,19.457 33.05,25.781 14.66,6.324 32.64,9.485 53.94,9.485 14.55,0 28.89,-1.633 43.02,-4.899 14.13,-3.266 26.57,-8.066 37.34,-14.391 l -19.31,-46.507 c -21.09,11.39 -41.54,17.086 -61.37,17.086 -12.45,0 -21.51,-1.852 -27.2,-5.536 -5.69,-3.699 -8.55,-8.496 -8.55,-14.398 0,-5.902 3.38,-10.336 10.13,-13.281 6.74,-2.957 17.6,-6.016 32.58,-9.176 16.87,-3.59 30.84,-7.43 41.92,-11.543 11.06,-4.109 20.66,-10.656 28.79,-19.617 8.11,-8.961 12.18,-21.141 12.18,-36.539 0,-13.281 -3.7,-25.301 -11.08,-36.0549 -7.38,-10.7618 -18.46,-19.3438 -33.21,-25.7813 -14.77,-6.4258 -32.7,-9.6484 -53.78,-9.6484 -17.92,0 -35.33,2.2148 -52.2,6.6406" /><path
         id="path18"
         style="fill:#ffffff;fill-opacity:1;fill-rule:nonzero;stroke:none"
         d="M 1088.52,272.211 V 50.7813 h 62.64 V 272.211 h -62.64" /><path
         id="path20"
         style="fill:#ffffff;fill-opacity:1;fill-rule:nonzero;stroke:none"
         d="m 368.949,50.6563 h 66.715 L 563.656,272.348 h -66.711 l -51.511,-89.219 -51.516,89.219 H 327.211 L 412.078,125.355 368.949,50.6563" /><path
         id="path22"
         style="fill:#40bea1;fill-opacity:1;fill-rule:nonzero;stroke:none"
         d="m 100.648,205.559 c 12.973,21.644 29.848,44.222 47.36,65.445 -7.18,38.621 -32.395,71.742 -72.9377,96.187 C 69.1797,355.691 18.0586,265.367 3.85156,202.723 -10.5586,140.066 15.9883,86.0273 75.0703,50.4023 c 0.0274,0.0469 0.0586,0.1094 0.0781,0.1563 C 56.3789,98.6641 69.3398,152.379 100.648,205.559" /><path
         id="path24"
         style="fill:#f8a10e;fill-opacity:1;fill-rule:nonzero;stroke:none"
         d="m 240.148,367.883 c -5.824,-4.278 -50.773,-46.762 -92.136,-96.879 0,-0.024 0.004,-0.051 0.004,-0.074 0.714,-3.836 1.254,-8.164 1.656,-12.7 0.023,-0.32 0.074,-0.625 0.098,-0.937 1.343,-16.137 0.664,-35.395 -2.797,-50.461 C 132.797,144.328 99.1289,93.7617 75.2422,50.7266 75.2188,50.668 75.1836,50.6094 75.1563,50.5586 82.0703,32.8438 93.1484,15.8711 109.387,0.00390625 119.027,8.72266 205.273,89.5625 248.895,162.32 c 42.832,72.758 51.601,146.571 -8.747,205.563" /><path
         id="path26"
         style="fill:#ffffff;fill-opacity:1;fill-rule:nonzero;stroke:none"
         d="M 772.293,180.797 H 679.18 v -49.09 h 37.91 v -26.195 c -10.547,-4.856 -21.824,-7.2776 -33.848,-7.2776 -12.234,0 -23.094,2.6876 -32.586,8.0666 -9.488,5.383 -16.875,12.859 -22.14,22.457 -5.27,9.594 -7.907,20.515 -7.907,32.742 0,19.191 5.789,34.531 17.399,46.027 11.594,11.493 26.887,17.246 45.863,17.246 19.945,0 37.164,-7.593 51.723,-22.609 l 36.926,39.27 c -10.071,10.457 -22.032,18.808 -36.133,24.769 -16.457,6.965 -35.012,10.442 -55.672,10.442 -23.621,0 -44.824,-4.899 -63.582,-14.704 -18.781,-9.804 -33.43,-23.472 -43.981,-40.968 -10.547,-17.508 -15.816,-37.328 -15.816,-59.473 0,-22.141 5.269,-41.969 15.816,-59.469 10.551,-17.5076 25.102,-31.1482 43.657,-40.9724 18.55,-9.8047 39.441,-14.6992 62.636,-14.6992 16.453,0 32.899,2.4219 49.344,7.2773 16.453,4.8438 31.004,11.7969 43.66,20.8672 v 91.7421 h -0.156 v 14.551" /></g></g></svg>
