<?xml version="1.0" encoding="UTF-8" standalone="no"?>
<svg
   viewBox="0 0 37.761611 49.050544"
   height="49.050545"
   width="37.761612"
   xml:space="preserve"
   id="svg2"
   version="1.1"
   sodipodi:docname="ygnis_white_small.svg"
   inkscape:version="1.3.2 (091e20e, 2023-11-25, custom)"
   xmlns:inkscape="http://www.inkscape.org/namespaces/inkscape"
   xmlns:sodipodi="http://sodipodi.sourceforge.net/DTD/sodipodi-0.dtd"
   xmlns="http://www.w3.org/2000/svg"
   xmlns:svg="http://www.w3.org/2000/svg"
   xmlns:rdf="http://www.w3.org/1999/02/22-rdf-syntax-ns#"
   xmlns:cc="http://creativecommons.org/ns#"
   xmlns:dc="http://purl.org/dc/elements/1.1/"><sodipodi:namedview
     id="namedview1"
     pagecolor="#ffffff"
     bordercolor="#111111"
     borderopacity="1"
     inkscape:showpageshadow="0"
     inkscape:pageopacity="0"
     inkscape:pagecheckerboard="1"
     inkscape:deskcolor="#d1d1d1"
     inkscape:zoom="5.696408"
     inkscape:cx="92.426666"
     inkscape:cy="24.489117"
     inkscape:window-width="1920"
     inkscape:window-height="1009"
     inkscape:window-x="-8"
     inkscape:window-y="-6"
     inkscape:window-maximized="1"
     inkscape:current-layer="g12" /><metadata
     id="metadata8"><rdf:RDF><cc:Work
         rdf:about=""><dc:format>image/svg+xml</dc:format><dc:type
           rdf:resource="http://purl.org/dc/dcmitype/StillImage" /></cc:Work></rdf:RDF></metadata><defs
     id="defs6" /><g
     transform="matrix(1.3333333,0,0,-1.3333333,-2.548026e-4,49.051065)"
     id="g10"><g
       transform="scale(0.1)"
       id="g12"><path
         id="path22"
         style="fill:#40bea1;fill-opacity:1;fill-rule:nonzero;stroke:none"
         d="m 100.648,205.559 c 12.973,21.644 29.848,44.222 47.36,65.445 -7.18,38.621 -32.395,71.742 -72.9377,96.187 C 69.1797,355.691 18.0586,265.367 3.85156,202.723 -10.5586,140.066 15.9883,86.0273 75.0703,50.4023 c 0.0274,0.0469 0.0586,0.1094 0.0781,0.1563 C 56.3789,98.6641 69.3398,152.379 100.648,205.559" /><path
         id="path24"
         style="fill:#f8a10e;fill-opacity:1;fill-rule:nonzero;stroke:none"
         d="m 240.148,367.883 c -5.824,-4.278 -50.773,-46.762 -92.136,-96.879 0,-0.024 0.004,-0.051 0.004,-0.074 0.714,-3.836 1.254,-8.164 1.656,-12.7 0.023,-0.32 0.074,-0.625 0.098,-0.937 1.343,-16.137 0.664,-35.395 -2.797,-50.461 C 132.797,144.328 99.1289,93.7617 75.2422,50.7266 75.2188,50.668 75.1836,50.6094 75.1563,50.5586 82.0703,32.8438 93.1484,15.8711 109.387,0.00390625 119.027,8.72266 205.273,89.5625 248.895,162.32 c 42.832,72.758 51.601,146.571 -8.747,205.563" /></g></g></svg>
